<?xml version="1.0" encoding="utf-8"?>
<!-- Generator: Adobe Illustrator 16.0.0, SVG Export Plug-In . SVG Version: 6.00 Build 0)  -->
<!DOCTYPE svg PUBLIC "-//W3C//DTD SVG 1.1//EN" "http://www.w3.org/Graphics/SVG/1.1/DTD/svg11.dtd">
<svg version="1.1" id="Layer_1" xmlns="http://www.w3.org/2000/svg" xmlns:xlink="http://www.w3.org/1999/xlink" x="0px" y="0px"
	 width="822.36px" height="258.4px" viewBox="0 0 822.36 258.4" enable-background="new 0 0 822.36 258.4" xml:space="preserve">
<g>
	<g>
		<path fill="#E7C39A" d="M182.605,198.367c0.157-0.121,0.245-0.268,0.383-0.391c2.768-2.586,4.547-6.146,4.927-10.119l0.088-0.031
			c0,0,0-0.275-0.012-0.689c0.012-0.26,0.086-0.5,0.086-0.768c0-2.285-0.528-4.422-1.392-6.379c-1.646-4.793-5.383-9.9-13.79-9.525
			c-0.194-0.014-0.392-0.033-0.617-0.023c-0.052,0-0.094-0.012-0.146-0.012c-0.479,0-0.943,0.096-1.425,0.139
			c-1.188,0.164-2.508,0.512-3.863,0.924c-0.083,0.02-0.153,0.033-0.237,0.057c-15.669,4.619-23.245,7.482-38.65,7.234
			c-15.396,0.248-22.979-2.615-38.654-7.234c-0.083-0.023-0.153-0.037-0.237-0.057c-1.359-0.412-2.671-0.76-3.863-0.924
			c-0.473-0.043-0.938-0.139-1.42-0.139c-0.052,0-0.088,0.012-0.133,0.012c-0.239-0.01-0.434,0.01-0.628,0.023
			c-8.405-0.375-12.146,4.732-13.793,9.525c-0.866,1.957-1.39,4.094-1.39,6.379c0,0.268,0.072,0.508,0.085,0.768
			c-0.013,0.414-0.013,0.689-0.013,0.689l0.085,0.031c0.383,3.973,2.164,7.533,4.927,10.119c0.142,0.123,0.226,0.27,0.388,0.391
			c6.896,5.055,9.607,10.982,9.607,10.982c1.231,1.895,1.97,4.141,1.97,6.58c0,0.678-0.073,1.348-0.174,1.992
			c3.6,2.918,17.775,13.027,41.588,12.973c0.562,0,1.104-0.049,1.655-0.068c0.552,0.02,1.087,0.068,1.648,0.068
			c23.815,0.055,37.992-10.049,41.601-12.973c-0.116-0.645-0.184-1.314-0.184-1.992c0-2.439,0.739-4.686,1.98-6.58
			C173.002,209.35,175.703,203.422,182.605,198.367"/>
		<path fill="#ED9E6E" d="M84.713,217.922c0.014,0.008,0.044,0.033,0.059,0.045c-0.015-0.115-0.015-0.234-0.035-0.352
			C84.72,217.715,84.727,217.82,84.713,217.922"/>
		<path fill="#ED9E6E" d="M67.911,187.824l0.085,0.033c0.012,0.08,0.035,0.154,0.045,0.238c0.201-1.596,0.554-3.139,1.188-4.559
			c1.647-4.803,5.388-9.908,13.793-9.537c0.194-0.002,0.389-0.023,0.628-0.016c0.045,0,0.081-0.014,0.133-0.014
			c0.482,0,0.947,0.098,1.42,0.145c1.192,0.16,2.504,0.504,3.863,0.92c0.084,0.018,0.154,0.023,0.237,0.059
			c15.675,4.617,23.259,7.482,38.654,7.238c15.405,0.244,22.981-2.621,38.65-7.238c0.084-0.035,0.154-0.041,0.237-0.059
			c1.355-0.416,2.676-0.76,3.863-0.92c0.481-0.047,0.946-0.145,1.425-0.145c0.052,0,0.094,0.014,0.146,0.014
			c0.226-0.008,0.423,0.014,0.617,0.016c8.407-0.371,12.145,4.734,13.79,9.537c0.631,1.42,0.986,2.953,1.184,4.551
			c0.017-0.076,0.04-0.15,0.047-0.23l0.087-0.033c0,0,0-0.273-0.012-0.688c0.012-0.258,0.086-0.5,0.086-0.768
			c0-2.285-0.528-4.422-1.392-6.379c-1.646-4.793-5.383-9.9-13.79-9.525c-0.194-0.014-0.392-0.033-0.617-0.025
			c-0.052,0-0.094-0.01-0.146-0.01c-0.479,0-0.943,0.096-1.425,0.141c-1.188,0.162-2.508,0.51-3.863,0.922
			c-0.083,0.02-0.153,0.031-0.237,0.057c-15.669,4.619-23.245,7.484-38.65,7.236c-15.396,0.248-22.979-2.617-38.654-7.236
			c-0.083-0.025-0.153-0.037-0.237-0.057c-1.359-0.412-2.671-0.76-3.863-0.922c-0.473-0.045-0.938-0.141-1.42-0.141
			c-0.052,0-0.088,0.01-0.133,0.01c-0.239-0.008-0.434,0.012-0.628,0.025c-8.405-0.375-12.146,4.732-13.793,9.525
			c-0.866,1.957-1.39,4.094-1.39,6.379c0,0.268,0.072,0.51,0.084,0.768C67.911,187.551,67.911,187.824,67.911,187.824"/>
		<path fill="#ED9E6E" d="M171.137,217.977c0.019-0.021,0.052-0.041,0.068-0.055c-0.017-0.102-0.017-0.207-0.036-0.307
			C171.156,217.732,171.153,217.854,171.137,217.977"/>
		<path fill="#ED9E6E" d="M99.634,210.189c0,7.402-5.999,13.406-13.414,13.406c-7.401,0-13.41-6.004-13.41-13.406
			c0-7.406,6.009-13.416,13.41-13.416C93.635,196.773,99.634,202.783,99.634,210.189"/>
		<path fill="#ED9E6E" d="M183.103,210.189c0,7.402-6.004,13.406-13.405,13.406c-7.415,0-13.422-6.004-13.422-13.406
			c0-7.406,6.007-13.416,13.422-13.416C177.099,196.773,183.103,202.783,183.103,210.189"/>
		<path fill="#F15B2B" d="M127.955,66.966L127.955,66.966c-48.643,0-88.22,39.576-88.22,88.212c0,22,8.121,42.125,21.489,57.596
			c4.976,8.947,15.703,11.205,16.466,4.172c0.003-0.01,0.003-0.033,0.009-0.053c0.005-0.014,0.005-0.014,0.005-0.027
			c0.007-0.006,0-0.02,0-0.02c0.06-0.297,0.097-0.611,0.097-0.916c0-0.479-0.09-0.938-0.214-1.375
			c-1.101-5.943-8.1-10.172-8.1-10.172c-5.319-4.221-8.735-10.715-8.735-18.014c0-9.99,6.403-18.492,15.31-21.672
			c0,0,8.64-2.332,21.098,2.969c1.903,0.812,3.438,1.178,4.72,1.277c7.535,1.91,16.302,3.107,26.076,3.107
			c9.778,0,18.541-1.197,26.082-3.107c1.286-0.1,2.811-0.465,4.716-1.277c12.457-5.301,21.098-2.969,21.098-2.969
			c8.905,3.18,15.309,11.682,15.309,21.672c0,7.299-3.413,13.793-8.728,18.014c0,0-7.004,4.229-8.103,10.172
			c-0.129,0.438-0.214,0.896-0.214,1.375c0,0.305,0.031,0.619,0.097,0.916c0,0-0.012,0.014,0,0.02v0.027
			c0.008,0.02,0.008,0.043,0.017,0.053c0.76,7.033,11.494,4.775,16.462-4.172c13.364-15.471,21.484-35.596,21.484-57.596
			C216.174,106.542,176.589,66.966,127.955,66.966"/>
		<path fill="#EF4132" d="M69.489,204.383c-4.777-3.795-8.002-9.438-8.612-15.836c-8.838-13.73-14.053-30.021-14.053-47.541
			c0-11.328,2.173-22.162,6.089-32.126c-8.345,13.468-13.178,29.325-13.178,46.298c0,22,8.121,42.125,21.489,57.596
			c4.976,8.947,15.703,11.205,16.466,4.172c0.005-0.01,0.005-0.033,0.009-0.053c0.005-0.014,0.005-0.014,0.005-0.027
			c0.007-0.006,0-0.02,0-0.02c0.06-0.297,0.097-0.611,0.097-0.916c0-0.479-0.09-0.934-0.214-1.375
			C76.486,208.611,69.489,204.383,69.489,204.383"/>
		<path fill="#ED1C24" d="M195.159,186.369c0,0.846-0.052,1.691-0.143,2.512c4.436-4.193,7.225-10.107,7.225-16.684
			c0-9.986-6.398-18.484-15.305-21.67c0,0-8.647-2.334-21.093,2.975c-1.901,0.812-3.437,1.174-4.722,1.273
			c-7.543,1.904-16.305,3.107-26.084,3.107c-9.773,0-18.536-1.203-26.077-3.107c-1.286-0.1-2.811-0.461-4.711-1.273
			c-12.459-5.309-21.103-2.975-21.103-2.975c-8.14,2.908-14.128,10.279-15.106,19.145c2.302-2.156,4.999-3.889,8.021-4.975
			c0,0,8.64-2.332,21.098,2.969c1.903,0.812,3.438,1.178,4.72,1.277c7.535,1.91,16.3,3.107,26.076,3.107
			c9.778,0,18.541-1.197,26.082-3.107c1.286-0.1,2.811-0.465,4.716-1.277c12.457-5.301,21.096-2.969,21.096-2.969
			C188.755,167.877,195.159,176.379,195.159,186.369"/>
		<path fill="#EF4132" d="M201.78,198.604c-4.436,7.98-13.429,10.617-15.871,6.125c-1.599,1.072-6.648,4.826-7.58,9.826
			c-0.129,0.438-0.214,0.896-0.214,1.375c0,0.307,0.031,0.619,0.097,0.916c0,0-0.012,0.014,0,0.02v0.027
			c0.008,0.018,0.008,0.043,0.017,0.055c0.76,7.031,11.494,4.773,16.461-4.174c6.512-7.547,11.767-16.209,15.448-25.643
			C207.641,191.176,204.87,195.021,201.78,198.604"/>
		<path fill="#FBB041" d="M64.766,216.314c-13.372-15.465-21.484-35.594-21.484-57.588c0-48.647,39.574-88.216,88.217-88.216
			c23.419,0,44.731,9.191,60.538,24.137c-16.098-17.023-38.858-27.682-64.082-27.682c-48.643,0-88.222,39.576-88.222,88.21
			c0,22.002,8.123,42.127,21.491,57.6c1.338,2.404,3.11,4.318,4.976,5.705C65.689,217.809,65.201,217.094,64.766,216.314"/>
		<path fill="#FBB041" d="M181.763,220.488c-0.005-0.014-0.005-0.031-0.013-0.057v-0.018c-0.009-0.014,0-0.02,0-0.027
			c-0.061-0.295-0.093-0.607-0.093-0.916c0-0.48,0.084-0.945,0.214-1.377c1.098-5.943,8.102-10.168,8.102-10.168
			c5.314-4.211,8.729-10.717,8.729-18.014c0-7.289-3.425-13.75-8.729-17.967c3.212,3.949,5.186,8.947,5.186,14.424
			c0,7.297-3.413,13.793-8.728,18.014c0,0-7.002,4.229-8.103,10.172c-0.129,0.438-0.214,0.896-0.214,1.375
			c0,0.307,0.031,0.619,0.097,0.918c0,0-0.012,0.012,0,0.018v0.027c0.008,0.018,0.008,0.043,0.017,0.055
			c0.256,2.404,1.686,3.695,3.644,4.033C181.835,220.816,181.782,220.668,181.763,220.488"/>
		<path fill="#FBB041" d="M73.416,101.116c-1.174,1.049-24.386,23.749-15.431,27.056c8.962,3.309,23.896-18.093,23.395-22.575
			C80.882,101.116,76.826,98.058,73.416,101.116"/>
		<path fill="#FBB041" d="M93.328,82.7c-8.467,5.473-8.467,12.941-8.467,12.941s-0.052,3.564,8.305,0.982
			c4.065-1.381,8.596-3.842,11.606-7.453C112.237,80.214,101.782,77.228,93.328,82.7"/>
		<g opacity="0.2">
			<g>
				<defs>
					<rect id="SVGID_3_" x="143.185" y="65.097" width="50.744" height="22.316"/>
				</defs>
				<clipPath id="SVGID_2_">
					<use xlink:href="#SVGID_3_"  overflow="visible"/>
				</clipPath>
				<path clip-path="url(#SVGID_2_)" fill="#231F20" d="M143.185,65.782c0,0,2.454,16.232,20.413,19.771
					c17.96,3.547,30.331,0.93,30.331,0.93S163.804,60.601,143.185,65.782"/>
			</g>
		</g>
		<path fill="#2A262A" d="M127.955,59.88L127.955,59.88c-52.549,0-95.294,42.76-95.294,95.298c0,24.574,9.346,46.998,24.672,63.914
			v-0.006c0,0,13.438,10.594,19.744,8.088c1.604-0.602,3.031-1.562,4.23-2.742c5.831,4.414,20.762,13.555,44.372,13.555h0.686
			c0.543,0,1.057-0.055,1.59-0.074c0.544,0.02,1.056,0.074,1.594,0.074h0.685c23.613,0,38.533-9.141,44.378-13.555
			c1.19,1.18,2.626,2.141,4.225,2.742c0,0,8.505,2.32,17.019-5.207c16.93-17.209,27.404-40.791,27.404-66.789
			C223.258,102.64,180.509,59.88,127.955,59.88 M173.002,209.35c-1.241,1.895-1.98,4.141-1.98,6.58c0,0.678,0.067,1.346,0.184,1.992
			c-3.608,2.926-17.785,13.027-41.601,12.971c-0.562,0-1.097-0.047-1.65-0.066c-0.55,0.02-1.092,0.066-1.653,0.066
			c-23.811,0.057-37.988-10.053-41.588-12.971c0.101-0.646,0.174-1.314,0.174-1.992c0-2.439-0.737-4.686-1.97-6.58
			c0,0-2.711-5.928-9.607-10.982c-0.162-0.121-0.247-0.268-0.388-0.389c-2.763-2.588-4.544-6.148-4.927-10.121l-0.085-0.031
			c0,0,0-0.275,0.013-0.689c-0.013-0.26-0.087-0.5-0.087-0.768c0-2.285,0.527-4.422,1.392-6.379c1.647-4.793,5.388-9.9,13.793-9.525
			c0.194-0.014,0.389-0.033,0.629-0.023c0.044,0,0.08-0.012,0.132-0.012c0.482,0,0.947,0.096,1.42,0.139
			c1.192,0.164,2.504,0.512,3.863,0.924c0.084,0.02,0.154,0.033,0.237,0.057c15.675,4.619,23.257,7.482,38.652,7.236
			c15.407,0.246,22.983-2.617,38.652-7.236c0.084-0.023,0.154-0.037,0.237-0.057c1.356-0.412,2.676-0.76,3.863-0.924
			c0.481-0.043,0.946-0.139,1.425-0.139c0.052,0,0.094,0.012,0.144,0.012c0.228-0.01,0.427,0.01,0.619,0.023
			c8.405-0.375,12.145,4.732,13.79,9.525c0.863,1.957,1.392,4.094,1.392,6.379c0,0.268-0.074,0.508-0.084,0.768
			c0.01,0.414,0.01,0.689,0.01,0.689l-0.087,0.031c-0.381,3.973-2.16,7.533-4.927,10.121c-0.139,0.121-0.227,0.268-0.384,0.389
			C175.705,203.422,173.002,209.35,173.002,209.35 M194.689,212.773c-4.967,8.947-15.7,11.203-16.463,4.174
			c-0.007-0.012-0.007-0.035-0.015-0.055v-0.023c-0.012-0.01,0-0.023,0-0.023c-0.065-0.297-0.097-0.609-0.097-0.916
			c0-0.479,0.085-0.938,0.214-1.375c1.099-5.943,8.103-10.172,8.103-10.172c5.314-4.221,8.728-10.715,8.728-18.014
			c0-9.99-6.403-18.492-15.311-21.672c0,0-8.639-2.332-21.096,2.969c-1.905,0.812-3.43,1.178-4.716,1.277
			c-7.541,1.91-16.306,3.107-26.082,3.107s-18.541-1.197-26.076-3.107c-1.281-0.1-2.814-0.465-4.72-1.277
			c-12.458-5.301-21.098-2.969-21.098-2.969c-8.906,3.18-15.31,11.682-15.31,21.672c0,7.299,3.416,13.793,8.737,18.014
			c0,0,6.997,4.229,8.098,10.172c0.124,0.438,0.214,0.896,0.214,1.375c0,0.307-0.037,0.619-0.097,0.916c0,0,0.007,0.014,0,0.023
			c0,0.01,0,0.01-0.004,0.023c-0.007,0.02-0.007,0.043-0.008,0.055c-0.767,7.029-11.492,4.773-16.468-4.174
			c-13.368-15.471-21.489-35.596-21.489-57.596c0-48.634,39.577-88.212,88.22-88.212c48.635,0,88.22,39.578,88.22,88.212
			C216.174,177.178,208.054,197.303,194.689,212.773"/>
		<path fill="#2A262A" d="M109.139,191.238c0-4.652-3.766-8.418-8.418-8.418c-4.643,0-8.408,3.766-8.408,8.418
			s3.766,8.41,8.408,8.41C105.374,199.648,109.139,195.891,109.139,191.238"/>
		<path fill="#2A262A" d="M155.178,182.822c-4.642,0-8.406,3.764-8.406,8.416s3.765,8.41,8.406,8.41c4.649,0,8.419-3.758,8.419-8.41
			S159.828,182.822,155.178,182.822"/>
		<path fill="#ED1C24" d="M114.64,204.51c-2.022-0.07-2.932,0.684-3.447,1.258c-1.582,1.771-1.856,5.162-1.796,7.486
			c0.167,0.143,0.328,0.281,0.519,0.424h-0.021c0,0,1.412,1.342,4.315,2.672c-0.308-2.678,0.988-4.186,0.829-5.279
			c0.364,3.414,1.59,4.688,2.427,6.502c0.747,0.232,1.513,0.471,2.354,0.641c0.943,0.195,1.965,0.365,3.05,0.488
			C122.522,215.602,120.875,204.793,114.64,204.51"/>
		<path fill="#2A262A" d="M146.949,213.307c-0.043,0.051-0.105,0.09-0.162,0.127c-0.071,0.064-0.141,0.125-0.23,0.189
			c-2.455,2.035-5.77,3.299-8.873,4.086c-0.07,0.02-0.149,0.043-0.223,0.057c-1.161,0.291-2.272,0.504-3.293,0.676
			c-0.493,0.072-0.995,0.154-1.509,0.211c-2.104,0.27-3.538,0.311-3.538,0.311s0.031-0.02,0.048-0.033h-0.024
			c-0.08,0.016-0.364,0.057-1.178,0.037h-0.012h-0.142c-0.185-2.379-1.835-17.924-12.966-18.297c-2.974-0.109-5.48,0.891-7.26,2.885
			c-2.031,2.268-2.81,4.391-3.023,7.08c-0.416,0.111-0.869,0.258-1.428,0.465h-0.021c-4.047,4.131,3.354,8.695,4.495,9.457
			c4.448,2.684,10.875,5.008,19.851,5.008c0.371,0,0.749,0,1.127-0.01c9.405-0.197,16.068-2.609,20.618-5.295
			c0.941-0.658,2.929-2.131,4.408-3.723c0.371-0.465,0.721-0.885,0.981-1.189c0.03-0.047,0.054-0.09,0.082-0.123
			C155.998,213.49,152.821,208.025,146.949,213.307 M119.821,218.213c-0.842-0.17-1.605-0.408-2.354-0.641
			c-0.838-1.814-2.244-6.852-2.338-9.293c-0.909,3.326-1.227,5.393-0.919,8.07c-2.903-1.33-4.315-2.672-4.315-2.672h0.021
			c-0.19-0.143-0.353-0.281-0.519-0.424c-0.061-2.324,0.141-4.387,1.723-6.158c0.514-0.574,1.425-1.326,3.446-1.26
			c6.236,0.283,7.957,9.766,8.305,12.865C121.786,218.578,120.764,218.408,119.821,218.213"/>
		<path fill="#2A262A" d="M147.662,79.513c-0.223-1.414-1.604-2.871-4.319-0.553c-0.037,0.033-0.067,0.051-0.101,0.074
			c-0.051,0.037-0.091,0.08-0.15,0.109c-1.565,1.234-3.525,1.854-5.32,2.152c-0.04,0.012-0.088,0.016-0.128,0.023
			c-0.666,0.104-1.303,0.17-1.891,0.209c-0.282,0.018-0.568,0.027-0.861,0.035c-1.188,0.023-1.991-0.061-1.991-0.061
			s0.038-0.021,0.042-0.021c-0.157-0.01-0.296-0.004-0.457-0.02c-4.207-0.477-6.893-2.221-8.565-3.973
			c-0.017-0.014-0.033-0.02-0.05-0.037c-3.208-2.703-1.221-4.455-4.603-3.443h-0.014c-0.986,0.225-1.367,0.762-1.411,1.443
			c-1.796,1.621,2.104,6.104,2.619,6.676c2.272,2.273,5.709,4.455,10.838,5.178c0.219,0.035,0.43,0.062,0.657,0.084
			c5.396,0.611,9.447-0.572,12.315-2.135c0.615-0.398,1.896-1.291,2.908-2.314c0.25-0.305,0.493-0.578,0.674-0.783
			c0.023-0.025,0.038-0.049,0.063-0.072C148.366,81.534,148.289,80.292,147.662,79.513"/>
		<path fill="#2A262A" d="M127.955,81.378c0,0,11.936-42.229,17.608-47.596c5.66-5.365,7.054,1.795,7.054,1.795
			s-17.546,45.516-18.975,46.691C132.214,83.45,127.955,81.378,127.955,81.378"/>
		<path fill="#D8E028" d="M167.437,38.116c-10.689,8.305-13.158,19.854-13.672,23.381c1.321,0.924,2.535,2.27,3.778,3.66
			c4.542,5.074,10.763,12.008,25.771,9.463c21.535-3.664,36.185-28.309,36.589-44.375C196.79,26.376,179.146,29.024,167.437,38.116"
			/>
		<path fill="#7AC145" d="M183.315,74.62c17.249-2.936,30.07-19.336,34.701-34.01c-22.174-3.398-39.197-0.703-50.579,8.131
			c-5.971,4.639-9.322,10.248-11.253,14.939c0.453,0.482,0.9,0.969,1.357,1.477C162.085,70.231,168.306,77.163,183.315,74.62"/>
		<path fill="#3EB549" d="M183.315,71.077c-15.009,2.545-21.229-4.391-25.773-9.465c-1.044-1.162-2.079-2.248-3.162-3.127
			c-0.3,1.236-0.516,2.314-0.615,3.012c1.324,0.924,2.536,2.27,3.777,3.66c4.544,5.074,10.765,12.008,25.773,9.463
			c21.535-3.664,36.185-28.309,36.589-44.375c-0.104-0.02-0.2-0.025-0.311-0.049C217.401,46.122,203.341,67.669,183.315,71.077"/>
		<path fill="#2A262A" d="M226.891,26.958l-0.225-2.686l-2.652-0.498c-26.651-4.963-47.202-1.986-61.043,8.838
			c-13.211,10.33-15.819,24.443-16.305,28.447c-5.425,1.652-12.907,5.385-13.884,5.887l3.197,6.32
			c3.79-1.912,10.677-5.041,13.998-5.771c0.575,0.475,1.545,1.562,2.284,2.381c3.735,4.172,10.023,11.207,22.034,12.232
			c3.017,0.254,6.415,0.141,10.208-0.506C210.169,77.235,228.673,48.136,226.891,26.958 M183.315,74.62
			c-15.009,2.543-21.229-4.389-25.773-9.463c-1.241-1.391-2.453-2.736-3.777-3.66c0.515-3.527,2.981-15.076,13.673-23.381
			c11.709-9.092,29.351-11.74,52.467-7.871C219.5,46.312,204.85,70.956,183.315,74.62"/>
	</g>
	<path fill="#2A262A" d="M311.088,131.271h-7.16c-2.572,0-4.663,2.088-4.663,4.662v22.523h-25.473v-22.523
		c0-2.574-2.087-4.662-4.659-4.662h-7.16c-2.572,0-4.663,2.088-4.663,4.662v44.629v7.32h-0.01c-0.054,2.893-1.317,5.486-3.308,7.299
		c-0.786,0.715-0.796,1.926,0.007,2.619c1.772,1.527,4.073,2.451,6.596,2.451c0.404,0,0.806-0.025,1.197-0.072
		c0.06,0.004,0.12,0.018,0.181,0.018h7.16c2.572,0,4.659-2.086,4.659-4.66v-22.525h25.473v22.525c0,2.574,2.091,4.66,4.663,4.66
		h7.16c2.572,0,4.659-2.086,4.659-4.66v-59.604C315.748,133.359,313.661,131.271,311.088,131.271"/>
	<path fill="#FFFFFF" d="M585.727,160.17h-17.391v-14.131h20.816c0.203,0,0.395-0.033,0.592-0.059
		c5.939-0.205,10.693-5.072,10.693-11.061c0-3.586-1.709-6.766-4.352-8.789c-1.834,2.914-4.988,4.891-8.619,5.141h-28.17h-2.781
		c-2.576,0-4.662,2.088-4.662,4.66v53.41c-0.385,2.275-1.516,4.295-3.152,5.783c-0.785,0.715-0.799,1.928,0.008,2.621
		c1.77,1.525,4.07,2.451,6.592,2.451c0.268,0,0.529-0.021,0.785-0.041c0.145,0.014,0.281,0.041,0.43,0.041h7.16
		c2.576,0,4.66-2.086,4.66-4.66v-20.6h17.391c2.572,0,4.66-2.086,4.66-4.66v-5.447C590.387,162.256,588.299,160.17,585.727,160.17"
		/>
	<path fill="#2A262A" d="M350.649,149.674c-5.873,0-10.549,0.65-14.215,1.748l-0.291,0.049v-0.016
		c-3.354,0.582-6.608-0.635-8.782-2.963c-1.937,2.191-2.894,5.205-2.295,8.305c0.873,4.572,4.83,7.793,9.315,7.896
		c0.686,0.033,1.371-0.02,2.073-0.156c0.495-0.086,0.956-0.223,1.418-0.393c0.174-0.068,0.345-0.137,0.516-0.207
		c0.033,0,0.05,0,0.087-0.033c1.967-0.721,4.519-1.387,7.241-1.387c8.99,0,7.706,7.072,7.706,7.072s-12.844-0.857-20.754,3.424
		c-7.93,4.281-8.562,9.848-8.562,14.129s2.569,10.701,10.051,13.049c7.502,2.363,11.987-0.428,15.84-2.141
		c3.854-1.713,4.71-3.426,4.71-3.426s-0.204,5.566,4.281,5.566h7.277c2.365,0,3.425-1.062,3.425-6.422v-28.033
		C369.69,157.602,362.636,149.674,350.649,149.674 M350.853,185.43c-3.097,3.1-10.274,4.914-10.274,0
		c0-4.932,7.277-6.422,7.277-6.422h5.362C353.218,179.008,353.954,182.33,350.853,185.43"/>
	<path fill="#2A262A" d="M409.301,149.279c-8.357,0-11.764,3.355-13.496,5.584v-0.926c0-2.568-2.086-4.658-4.656-4.658h-7.157
		c-2.585,0-4.659,2.09-4.659,4.658v53.598c-0.414,2.199-1.528,4.15-3.12,5.596c-0.782,0.715-0.796,1.928,0.007,2.621
		c1.772,1.525,4.073,2.451,6.596,2.451c0.211,0,0.414-0.02,0.622-0.033l0.003,0.002c0.19,0.018,0.361,0.033,0.552,0.033h7.157
		c2.57,0,4.656-2.088,4.656-4.658v-16.199c2.195,2.021,5.994,3.752,12.641,3.752c15.84,0,23.117-11.611,23.117-28.086
		C431.562,156.523,420.432,149.279,409.301,149.279 M404.795,186.971c-3.936,0-7.344-2.604-8.99-6.404v-10.344
		c1.646-3.801,5.055-6.422,8.99-6.422c5.549,0,10.072,5.189,10.072,11.594C414.867,181.781,410.344,186.971,404.795,186.971"/>
	<path fill="#2A262A" d="M469.012,149.279c-8.338,0-11.762,3.355-13.475,5.584v-0.926c0-2.568-2.09-4.658-4.676-4.658h-7.158
		c-2.568,0-4.658,2.09-4.658,4.658v52.395c-0.168,2.713-1.385,5.137-3.275,6.855c-0.785,0.715-0.799,1.928,0.008,2.621
		c1.77,1.525,4.074,2.451,6.596,2.451c0.361,0,0.715-0.021,1.066-0.059c0.01,0,0.018,0.004,0.023,0.004h7.398
		c2.586,0,4.676-2.088,4.676-4.658v-16.199c2.191,2.021,5.977,3.752,12.619,3.752c15.84,0,23.119-11.611,23.119-28.086
		C491.275,156.523,480.143,149.279,469.012,149.279 M464.527,186.971c-3.939,0-7.346-2.604-8.99-6.404v-10.344
		c1.645-3.801,5.051-6.422,8.99-6.422c5.549,0,10.051,5.189,10.051,11.594C474.578,181.781,470.076,186.971,464.527,186.971"/>
	<path fill="#2A262A" d="M542.006,150.75h-10.703c-3.211,0-4.066,2.568-5.137,5.994s-6.633,23.117-6.633,23.117
		s-3.211-12.414-5.564-19.051c-2.355-6.635-3.426-10.061-5.994-10.061h-11.559c-2.783,0-3.211,4.068-2.355,5.566
		s5.779,13.699,7.707,17.766c1.926,4.068,11.131,23.332,10.701,25.473c-0.428,2.141-3.639,7.064-5.779,7.064
		s-5.352-0.643-7.062-0.428c-1.713,0.215-3.641,4.494-3.641,4.494c-0.855,2.355-4.709,10.49,10.703,9.42
		c15.41-1.07,18.191-13.059,20.76-20.336c2.57-7.277,15.199-39.387,16.055-42.383C544.361,154.389,544.361,150.75,542.006,150.75"/>
	<path fill="#FFFFFF" d="M628.699,150.75c-3.543,0-9.402,2.568-12.416,7.752v-2.83c0-2.574-2.086-4.66-4.658-4.66h-7.162
		c-2.57,0-4.662,2.086-4.662,4.66v33.67c-0.385,2.275-1.514,4.295-3.15,5.783c-0.785,0.715-0.799,1.928,0.004,2.621
		c1.771,1.525,4.074,2.451,6.6,2.451c0.264,0,0.523-0.021,0.785-0.041c0.141,0.014,0.281,0.041,0.424,0.041h7.162
		c2.572,0,4.658-2.086,4.658-4.66v-13.748c0,0,1.07-14.234,8.35-14.234c7.277,0,8.348-0.965,8.348-7.385
		C632.98,153.748,633.623,150.75,628.699,150.75"/>
	<path fill="#FFFFFF" d="M677.076,154.605c-8.338-5.789-15.412-5.137-15.412-5.137h-6.422c-4.281,0-18.838,6.627-18.838,22.262
		v6.422c0,2.568,0.857,16.9,18.838,22.039c17.98,5.137,27.195-4.916,28.051-5.771c0.857-0.855,0.857-10.275-7.705-10.275
		c0,0-5.361,3.631-11.988,3.631c-6.645,0-10.273-8.768-10.273-8.768h26.115c3.424,0,5.34-2.568,5.34-4.076
		C684.781,173.441,685.434,160.377,677.076,154.605 M653.957,168.51c0,0,1.51-7.055,7.279-7.055c5.789,0,7.277,7.055,7.277,7.055
		H653.957z"/>
	<path fill="#FFFFFF" d="M715.178,169.588c-6.85-1.498-8.99-2.568-8.99-4.604c0-2.033,4.281-4.387,10.918-1.391
		c6.635,2.996,8.775-2.141,8.775-2.141s1.713-2.141,1.713-4.924c0-2.781-4.924-7.084-16.27-7.084
		c-11.344,0-21.191,4.303-21.191,15.539c0,11.238,9.633,15.947,16.055,15.947s10.918,7.279,3.854,7.279s-8.348-1.928-11.988-3.426
		c-3.639-1.498-9.846,5.139-7.92,9.848c1.928,4.709,12.482,7.02,18.551,7.02c6.066,0,13.344-1.668,16.982-7.449
		c3.641-5.779,3.426-11.131,1.928-15.197S722.027,171.086,715.178,169.588"/>
	<path fill="#FFFFFF" d="M772.76,149.445c-8.562,0-12.201-1.691-19.48,7.514v-21.025c0-2.574-2.086-4.662-4.658-4.662h-7.16
		c-2.572,0-4.664,2.088-4.664,4.662v54.156c-0.488,1.971-1.547,3.713-3.002,5.035c-0.783,0.717-0.797,1.928,0.006,2.619
		c1.773,1.529,4.074,2.453,6.6,2.453c0.23,0,0.457-0.021,0.686-0.037c0.127,0.01,0.248,0.037,0.375,0.037h7.16
		c2.572,0,4.658-2.086,4.658-4.662v-20.129c2.031-3.959,5.609-10.422,10.49-10.422c5.859,0,6.445,5.561,6.354,8.457h-0.146v22.094
		c0,2.576,2.09,4.662,4.662,4.662h7.162c2.57,0,4.658-2.086,4.658-4.662v-20.381v-1.713v-8.457
		C786.459,160.811,781.322,149.445,772.76,149.445"/>
</g>
</svg>
